<svg width="32" height="32" viewBox="0 0 32 32" fill="none" xmlns="http://www.w3.org/2000/svg">
<path d="M29.7143 14.1429H7.77143L13.0514 8.86286C13.5017 8.41257 13.7143 7.87543 13.7143 7.28571C13.7143 6.16114 12.7851 5 11.4286 5C10.8217 5 10.2926 5.22057 9.85143 5.66286L0.756571 14.7577C0.381714 15.1326 0 15.5954 0 16.4286C0 17.2617 0.318857 17.6629 0.738286 18.0823L9.85143 27.1943C10.2926 27.6366 10.8217 27.8571 11.4286 27.8571C12.7863 27.8571 13.7143 26.696 13.7143 25.5714C13.7143 24.9817 13.5017 24.4446 13.0514 23.9943L7.77143 18.7143H29.7143C30.976 18.7143 32 17.6903 32 16.4286C32 15.1669 30.976 14.1429 29.7143 14.1429Z" fill="#16CCD9"/>
</svg>
