<svg width="24" height="24" viewBox="0 0 24 24" fill="none" xmlns="http://www.w3.org/2000/svg">
<path d="M12 0C9.62663 0 7.30655 0.703788 5.33316 2.02236C3.35977 3.34094 1.8217 5.21508 0.913451 7.4078C0.0051994 9.60051 -0.232441 12.0133 0.230582 14.3411C0.693605 16.6689 1.83649 18.807 3.51472 20.4853C5.19295 22.1635 7.33115 23.3064 9.65892 23.7694C11.9867 24.2324 14.3995 23.9948 16.5922 23.0865C18.7849 22.1783 20.6591 20.6402 21.9776 18.6668C23.2962 16.6934 24 14.3734 24 12C23.9966 8.81844 22.7312 5.76818 20.4815 3.51848C18.2318 1.26878 15.1816 0.00340334 12 0V0ZM12 22.2857C9.96568 22.2857 7.97704 21.6825 6.28557 20.5523C4.59409 19.422 3.27575 17.8156 2.49724 15.9362C1.71874 14.0567 1.51505 11.9886 1.91193 9.99335C2.3088 7.99812 3.28842 6.16538 4.72691 4.7269C6.16539 3.28842 7.99813 2.3088 9.99336 1.91192C11.9886 1.51505 14.0567 1.71874 15.9362 2.49724C17.8156 3.27574 19.4221 4.59409 20.5523 6.28556C21.6825 7.97704 22.2857 9.96568 22.2857 12C22.2828 14.727 21.1981 17.3415 19.2698 19.2698C17.3415 21.1981 14.727 22.2828 12 22.2857V22.2857Z" fill="#F26262"/>
<path d="M6.85714 7.21199V10.2857C6.85714 10.513 6.94745 10.7311 7.10819 10.8918C7.26894 11.0525 7.48696 11.1429 7.71428 11.1429C7.94161 11.1429 8.15963 11.0525 8.32038 10.8918C8.48112 10.7311 8.57143 10.513 8.57143 10.2857V8.92628L8.82257 9.17742C8.98423 9.33356 9.20075 9.41995 9.42549 9.418C9.65023 9.41605 9.86521 9.3259 10.0241 9.16698C10.1831 9.00806 10.2732 8.79308 10.2751 8.56834C10.2771 8.3436 10.1907 8.12708 10.0346 7.96542L8.32028 6.25114L6.606 4.53685C6.52693 4.45499 6.43235 4.38969 6.32777 4.34477C6.2232 4.29984 6.11073 4.2762 5.99691 4.27521C5.8831 4.27422 5.77024 4.29591 5.6649 4.33901C5.55956 4.3821 5.46386 4.44575 5.38338 4.52623C5.3029 4.60671 5.23925 4.70241 5.19615 4.80775C5.15305 4.91309 5.13137 5.02596 5.13236 5.13977C5.13335 5.25358 5.15699 5.36605 5.20191 5.47063C5.24683 5.5752 5.31213 5.66978 5.394 5.74885L6.85714 7.21199Z" fill="#F26262"/>
<path d="M17.394 4.53685L15.6797 6.25114L13.9654 7.96542C13.8835 8.04449 13.8182 8.13907 13.7733 8.24365C13.7284 8.34822 13.7048 8.4607 13.7038 8.57451C13.7028 8.68832 13.7245 8.80119 13.7676 8.90653C13.8107 9.01187 13.8743 9.10757 13.9548 9.18805C14.0353 9.26853 14.131 9.33217 14.2363 9.37527C14.3416 9.41837 14.4545 9.44006 14.5683 9.43907C14.6821 9.43808 14.7946 9.41443 14.8992 9.36951C15.0038 9.32459 15.0983 9.25929 15.1774 9.17742L15.4286 8.92628V10.2857C15.4286 10.513 15.5189 10.7311 15.6796 10.8918C15.8403 11.0525 16.0584 11.1429 16.2857 11.1429C16.513 11.1429 16.731 11.0525 16.8918 10.8918C17.0525 10.7311 17.1428 10.513 17.1428 10.2857V7.21199L18.606 5.74885C18.6878 5.66978 18.7531 5.5752 18.7981 5.47063C18.843 5.36605 18.8666 5.25358 18.8676 5.13977C18.8686 5.02596 18.8469 4.91309 18.8038 4.80775C18.7607 4.70241 18.6971 4.60671 18.6166 4.52623C18.5361 4.44575 18.4404 4.3821 18.3351 4.33901C18.2297 4.29591 18.1169 4.27422 18.0031 4.27521C17.8893 4.2762 17.7768 4.29984 17.6722 4.34477C17.5676 4.38969 17.4731 4.45499 17.394 4.53685V4.53685Z" fill="#F26262"/>
<path d="M18 13.7143C17.7727 13.7143 17.5547 13.8046 17.3939 13.9653C17.2332 14.1261 17.1429 14.3441 17.1429 14.5714C17.1415 15.7076 16.6896 16.7969 15.8861 17.6004C15.0827 18.4038 13.9934 18.8558 12.8572 18.8571H11.1429C10.0067 18.8558 8.91736 18.4038 8.11393 17.6004C7.3105 16.7969 6.85853 15.7076 6.85717 14.5714C6.85717 14.3441 6.76686 14.1261 6.60612 13.9653C6.44537 13.8046 6.22735 13.7143 6.00003 13.7143C5.7727 13.7143 5.55468 13.8046 5.39393 13.9653C5.23319 14.1261 5.14288 14.3441 5.14288 14.5714C5.1447 16.1622 5.77742 17.6872 6.90225 18.8121C8.02707 19.9369 9.55214 20.5696 11.1429 20.5714H12.8572C14.4479 20.5696 15.973 19.9369 17.0978 18.8121C18.2226 17.6872 18.8554 16.1622 18.8572 14.5714C18.8572 14.3441 18.7669 14.1261 18.6061 13.9653C18.4454 13.8046 18.2274 13.7143 18 13.7143Z" fill="#F26262"/>
</svg>
