<svg width="24" height="24" viewBox="0 0 24 24" fill="none" xmlns="http://www.w3.org/2000/svg">
<path d="M12 24C9.62663 24 7.30655 23.2962 5.33316 21.9776C3.35977 20.6591 1.8217 18.7849 0.913451 16.5922C0.0051994 14.3995 -0.232441 11.9867 0.230582 9.65892C0.693605 7.33115 1.83649 5.19295 3.51472 3.51472C5.19295 1.83649 7.33115 0.693605 9.65892 0.230582C11.9867 -0.232441 14.3995 0.0051994 16.5922 0.913451C18.7849 1.8217 20.6591 3.35977 21.9776 5.33316C23.2962 7.30655 24 9.62663 24 12C23.9966 15.1816 22.7312 18.2318 20.4815 20.4815C18.2318 22.7312 15.1816 23.9966 12 24ZM12 1.71429C9.96568 1.71429 7.97704 2.31754 6.28557 3.44775C4.59409 4.57795 3.27575 6.18436 2.49724 8.06383C1.71874 9.9433 1.51505 12.0114 1.91193 14.0066C2.3088 16.0019 3.28842 17.8346 4.72691 19.2731C6.16539 20.7116 7.99813 21.6912 9.99336 22.0881C11.9886 22.485 14.0567 22.2813 15.9362 21.5028C17.8156 20.7243 19.4221 19.4059 20.5523 17.7144C21.6825 16.023 22.2857 14.0343 22.2857 12C22.2828 9.27297 21.1981 6.65847 19.2698 4.73016C17.3415 2.80186 14.727 1.71724 12 1.71429Z" fill="#8EC021"/>
<path d="M9.4286 8.57144C9.20127 8.57144 8.98325 8.48113 8.82251 8.32039C8.66176 8.15964 8.57145 7.94162 8.57145 7.7143C8.57145 7.48697 8.48115 7.26895 8.3204 7.1082C8.15966 6.94746 7.94164 6.85715 7.71431 6.85715C7.48698 6.85715 7.26897 6.94746 7.10822 7.1082C6.94747 7.26895 6.85717 7.48697 6.85717 7.7143C6.85717 7.94162 6.76686 8.15964 6.60612 8.32039C6.44537 8.48113 6.22735 8.57144 6.00003 8.57144C5.7727 8.57144 5.55468 8.48113 5.39393 8.32039C5.23319 8.15964 5.14288 7.94162 5.14288 7.7143C5.14288 7.03231 5.4138 6.37826 5.89604 5.89602C6.37827 5.41379 7.03233 5.14287 7.71431 5.14287C8.3963 5.14287 9.05035 5.41379 9.53259 5.89602C10.0148 6.37826 10.2857 7.03231 10.2857 7.7143C10.2857 7.94162 10.1954 8.15964 10.0347 8.32039C9.87394 8.48113 9.65593 8.57144 9.4286 8.57144Z" fill="#8EC021"/>
<path d="M18 8.57144C17.7727 8.57144 17.5547 8.48113 17.3939 8.32039C17.2332 8.15964 17.1429 7.94162 17.1429 7.7143C17.1429 7.48697 17.0526 7.26895 16.8918 7.1082C16.7311 6.94746 16.5131 6.85715 16.2857 6.85715C16.0584 6.85715 15.8404 6.94746 15.6796 7.1082C15.5189 7.26895 15.4286 7.48697 15.4286 7.7143C15.4286 7.94162 15.3383 8.15964 15.1775 8.32039C15.0168 8.48113 14.7988 8.57144 14.5714 8.57144C14.3441 8.57144 14.1261 8.48113 13.9653 8.32039C13.8046 8.15964 13.7143 7.94162 13.7143 7.7143C13.7143 7.03231 13.9852 6.37826 14.4674 5.89602C14.9497 5.41379 15.6037 5.14287 16.2857 5.14287C16.9677 5.14287 17.6218 5.41379 18.104 5.89602C18.5862 6.37826 18.8572 7.03231 18.8572 7.7143C18.8572 7.94162 18.7668 8.15964 18.6061 8.32039C18.4454 8.48113 18.2273 8.57144 18 8.57144Z" fill="#8EC021"/>
<path d="M12.8572 20.5714H11.1429C9.55214 20.5696 8.02707 19.9369 6.90225 18.8121C5.77742 17.6872 5.1447 16.1622 5.14288 14.5714C5.14288 14.3441 5.23319 14.1261 5.39393 13.9653C5.55468 13.8046 5.7727 13.7143 6.00003 13.7143H18C18.2274 13.7143 18.4454 13.8046 18.6061 13.9653C18.7669 14.1261 18.8572 14.3441 18.8572 14.5714C18.8554 16.1622 18.2226 17.6872 17.0978 18.8121C15.973 19.9369 14.4479 20.5696 12.8572 20.5714ZM6.94288 15.4286C7.14167 16.396 7.66799 17.2653 8.43308 17.8899C9.19817 18.5144 10.1552 18.8561 11.1429 18.8572H12.8572C13.8448 18.8561 14.8019 18.5144 15.567 17.8899C16.3321 17.2653 16.8584 16.396 17.0572 15.4286H6.94288Z" fill="#8EC021"/>
</svg>
