<svg width="100" height="100" viewBox="0 0 100 100" fill="none" xmlns="http://www.w3.org/2000/svg">
<circle cx="50" cy="50" r="50" fill="#16CCD9"/>
<path d="M47.9175 61.459C47.9175 58.7735 48.6989 56.2708 50.0471 54.1658L33.86 54.1671C31.2724 54.1671 29.1748 56.2646 29.1748 58.8523V60.7688C29.1748 61.9606 29.5465 63.1227 30.2381 64.0933C33.4509 68.6025 38.7071 70.836 45.8342 70.836C47.7744 70.836 49.5762 70.6706 51.2335 70.3371C49.1679 67.9598 47.9175 64.8554 47.9175 61.459Z" fill="white"/>
<path d="M56.2508 39.5935C56.2508 33.8405 51.5871 29.1768 45.8342 29.1768C40.0811 29.1768 35.4174 33.8405 35.4174 39.5935C35.4174 45.3465 40.0811 50.0102 45.8342 50.0102C51.5871 50.0102 56.2508 45.3465 56.2508 39.5935Z" fill="white"/>
<path d="M72.9175 61.4587C72.9175 55.1306 67.7873 50.0004 61.4592 50.0004C55.1308 50.0004 50.0008 55.1306 50.0008 61.4587C50.0008 67.7871 55.1308 72.9171 61.4592 72.9171C67.7873 72.9171 72.9175 67.7871 72.9175 61.4587ZM61.2719 54.184L61.4592 54.1671L61.6462 54.184C62.0715 54.261 62.4069 54.5965 62.4839 55.0217L62.5008 55.2087L62.4987 60.4171H67.7173L67.9046 60.434C68.3296 60.511 68.665 60.8465 68.7421 61.2717L68.7589 61.4587L68.7421 61.646C68.665 62.0712 68.3296 62.4065 67.9046 62.4837L67.7173 62.5004H62.4987L62.5008 67.7087L62.4839 67.896C62.4069 68.3212 62.0715 68.6565 61.6462 68.7337L61.4592 68.7504L61.2719 68.7337C60.8467 68.6565 60.5114 68.3212 60.4342 67.896L60.4175 67.7087L60.4154 62.5004H55.2173L55.03 62.4837C54.6048 62.4065 54.2696 62.0712 54.1923 61.646L54.1756 61.4587L54.1923 61.2717C54.2696 60.8465 54.6048 60.511 55.03 60.434L55.2173 60.4171H60.4154L60.4175 55.2087L60.4342 55.0217C60.5114 54.5965 60.8467 54.261 61.2719 54.184Z" fill="white"/>
</svg>
