<svg width="24" height="24" viewBox="0 0 24 24" fill="none" xmlns="http://www.w3.org/2000/svg">
<path d="M15.8801 10.8621H23.2146C23.6549 10.8621 24.0274 10.4895 23.9984 10.0493C23.7517 6.382 21.8503 3.16952 19.0394 1.13753C18.6814 0.881115 18.1734 0.997228 17.9411 1.36976L14.0513 7.58184C15.1447 8.27368 15.8801 9.47836 15.8801 10.8621ZM14.0513 14.1374C13.4563 14.51 12.7547 14.7373 12 14.7373C11.2453 14.7373 10.5486 14.51 9.94866 14.1374L6.05885 20.3543C5.82662 20.7269 5.94274 21.23 6.32978 21.4381C8.01827 22.3476 9.94866 22.8701 12 22.8701C14.0513 22.8701 15.9817 22.3476 17.6702 21.4381C18.0573 21.23 18.1734 20.722 17.9411 20.3543L14.0513 14.1374ZM12 13.1843C13.2821 13.1843 14.3223 12.1441 14.3223 10.8621C14.3223 9.57996 13.2821 8.53978 12 8.53978C10.7179 8.53978 9.67773 9.57996 9.67773 10.8621C9.67773 12.1441 10.7179 13.1843 12 13.1843ZM0.785357 10.8621H8.11987C8.11987 9.47836 8.85526 8.27368 9.94866 7.58668L6.05885 1.3746C5.82662 1.00207 5.31863 0.881115 4.96061 1.14237C2.14969 3.17436 0.248331 6.38684 0.00158996 10.0541C-0.0274385 10.4895 0.345093 10.8621 0.785357 10.8621Z" fill="#F0A120"/>
</svg>
